<svg xmlns="http://www.w3.org/2000/svg" xmlns:xlink="http://www.w3.org/1999/xlink" viewBox="0 0 430 430" width="430" height="430" preserveAspectRatio="xMidYMid meet" style="width: 100%; height: 100%; transform: translate3d(0px, 0px, 0px); content-visibility: visible;"><defs><clipPath id="__lottie_element_26"><rect width="430" height="430" x="0" y="0"/></clipPath><clipPath id="__lottie_element_28"><path d="M0,0 L430,0 L430,430 L0,430z"/></clipPath><g id="__lottie_element_35"><g style="display: none;" transform="matrix(1.731469988822937,0,0,0.9631900191307068,215.91433715820312,205.9263458251953)" opacity="1"><g opacity="1" transform="matrix(1,0,0,1,-1.25,-246.5)"><path fill="rgb(255,42,0)" fill-opacity="1" d=" M151.75,-81.5 C151.75,-81.5 151.75,81.5 151.75,81.5 C151.75,81.5 -151.75,81.5 -151.75,81.5 C-151.75,81.5 -151.75,-81.5 -151.75,-81.5 C-151.75,-81.5 151.75,-81.5 151.75,-81.5z"/><path stroke-linecap="butt" stroke-linejoin="miter" fill-opacity="0" stroke-miterlimit="4" stroke="rgb(232,58,47)" stroke-opacity="1" stroke-width="0" d=" M151.75,-81.5 C151.75,-81.5 151.75,81.5 151.75,81.5 C151.75,81.5 -151.75,81.5 -151.75,81.5 C-151.75,81.5 -151.75,-81.5 -151.75,-81.5 C-151.75,-81.5 151.75,-81.5 151.75,-81.5z"/></g></g></g><filter id="__lottie_element_41" filterUnits="objectBoundingBox" x="0%" y="0%" width="100%" height="100%"><feComponentTransfer in="SourceGraphic"><feFuncA type="table" tableValues="1.0 0.0"/></feComponentTransfer></filter><mask id="__lottie_element_35_2" mask-type="alpha"><g filter="url(#__lottie_element_41)"><rect width="430" height="430" x="0" y="0" fill="#ffffff" opacity="0"/><use xmlns:ns1="http://www.w3.org/1999/xlink" ns1:href="#__lottie_element_35"/></g></mask></defs><g clip-path="url(#__lottie_element_26)"><g clip-path="url(#__lottie_element_28)" transform="matrix(1,0,0,1,0,0)" opacity="1" style="display: block;"><g mask="url(#__lottie_element_35_2)" style="display: block;"><g transform="matrix(1,0,0,1,215,214.947998046875)" opacity="1"><g opacity="1" transform="matrix(1,0,0,1,0,0)"><path stroke-linecap="round" stroke-linejoin="miter" fill-opacity="0" stroke-miterlimit="4" class="secondary" stroke="rgb(8,168,138)" stroke-opacity="1" stroke-width="12" d=" M70,40 C70,40 -70,40 -70,40 M0,120 C0,120 -70,120 -70,120 M70,80 C70,80 -70,80 -70,80 M-105,-160 C-105,-160 -105,-75 -105,-75 C-105,-75 45,-75 45,-75 C45,-75 45,-160 45,-160 M0,-75 C0,-75 0,-160 0,-160"/></g><g opacity="1" transform="matrix(1,0,0,1,0,0)"><path stroke-linecap="round" stroke-linejoin="miter" fill-opacity="0" stroke-miterlimit="4" class="primary" stroke="rgb(18,19,49)" stroke-opacity="1" stroke-width="12" d=" M-105,160 C-105,160 -105,20 -105,20 C-105,8.954000473022461 -96.0459976196289,0 -85,0 C-85,0 85,0 85,0 C96.0459976196289,0 105,8.954000473022461 105,20 C105,20 105,160 105,160 M-140,-160 C-151.04600524902344,-160 -160,-151.04600524902344 -160,-140 C-160,-140 -160,140 -160,140 C-160,151.04600524902344 -151.04600524902344,160 -140,160 C-140,160 140,160 140,160 C151.04600524902344,160 160,151.04600524902344 160,140 C160,140 160,-85 160,-85 C160,-85 85,-160 85,-160 C85,-160 -140,-160 -140,-160z"/></g></g></g><g transform="matrix(1,0,0,1,336,216.5)" opacity="1" style="display: none;"><g opacity="1" transform="matrix(1,0,0,1,0,0)"><path stroke-linecap="round" stroke-linejoin="round" fill-opacity="0" class="secondary" stroke="rgb(8,168,138)" stroke-opacity="1" stroke-width="12.04" d="M0 0"/></g></g><g transform="matrix(0,1,-1,0,333.9519958496094,20.93400001525879)" opacity="1" style="display: none;"><g opacity="1" transform="matrix(1,0,0,1,0,0)"><path stroke-linecap="round" stroke-linejoin="round" fill-opacity="0" class="secondary" stroke-dasharray=" 0.25 25" stroke-dashoffset="0" stroke="rgb(8,168,138)" stroke-opacity="1" stroke-width="14" d=" M0,-0.36000001430511475 C0,-0.36000001430511475 0,0.36000001430511475 0,0.36000001430511475"/></g></g><g transform="matrix(0,1,-1,0,359.5710144042969,20.93400001525879)" opacity="1" style="display: none;"><g opacity="1" transform="matrix(1,0,0,1,0,0)"><path stroke-linecap="round" stroke-linejoin="round" fill-opacity="0" class="secondary" stroke-dasharray=" 0.25 25" stroke-dashoffset="0" stroke="rgb(8,168,138)" stroke-opacity="1" stroke-width="14" d=" M0,-0.36000001430511475 C0,-0.36000001430511475 0,0.36000001430511475 0,0.36000001430511475"/></g></g></g></g></svg>